<svg width="30" height="30" viewBox="0 0 30 30" fill="none" xmlns="http://www.w3.org/2000/svg">
<rect width="30" height="30" fill="white" fill-opacity="0.05"/>
<path d="M15 12.2917C14.2817 12.2917 13.5928 12.577 13.0849 13.0849C12.577 13.5929 12.2916 14.2817 12.2916 15C12.2916 15.7183 12.577 16.4072 13.0849 16.9151C13.5928 17.423 14.2817 17.7084 15 17.7084C15.7183 17.7084 16.4071 17.423 16.915 16.9151C17.423 16.4072 17.7083 15.7183 17.7083 15C17.7083 14.2817 17.423 13.5929 16.915 13.0849C16.4071 12.577 15.7183 12.2917 15 12.2917Z" fill="white"/>
<path fill-rule="evenodd" clip-rule="evenodd" d="M10.6417 7.56833C13.5384 7.24724 16.4617 7.24724 19.3583 7.56833C20.9408 7.74499 22.2167 8.99083 22.4025 10.5792C22.746 13.5164 22.746 16.4836 22.4025 19.4208C22.2167 21.0092 20.9408 22.255 19.3592 22.4325C16.4622 22.7537 13.5386 22.7537 10.6417 22.4325C9.05918 22.255 7.78335 21.0092 7.59751 19.4217C7.25395 16.4842 7.25395 13.5166 7.59751 10.5792C7.78335 8.99083 9.05918 7.74499 10.6417 7.56833ZM19.1667 9.99999C18.9457 9.99999 18.7337 10.0878 18.5774 10.2441C18.4211 10.4004 18.3333 10.6123 18.3333 10.8333C18.3333 11.0543 18.4211 11.2663 18.5774 11.4226C18.7337 11.5789 18.9457 11.6667 19.1667 11.6667C19.3877 11.6667 19.5997 11.5789 19.7559 11.4226C19.9122 11.2663 20 11.0543 20 10.8333C20 10.6123 19.9122 10.4004 19.7559 10.2441C19.5997 10.0878 19.3877 9.99999 19.1667 9.99999ZM11.0417 15C11.0417 13.9502 11.4587 12.9434 12.201 12.201C12.9434 11.4587 13.9502 11.0417 15 11.0417C16.0498 11.0417 17.0566 11.4587 17.799 12.201C18.5413 12.9434 18.9583 13.9502 18.9583 15C18.9583 16.0498 18.5413 17.0566 17.799 17.799C17.0566 18.5413 16.0498 18.9583 15 18.9583C13.9502 18.9583 12.9434 18.5413 12.201 17.799C11.4587 17.0566 11.0417 16.0498 11.0417 15Z" fill="white"/>
</svg>
