<svg width="30" height="30" viewBox="0 0 30 30" fill="none" xmlns="http://www.w3.org/2000/svg">
<rect width="30" height="30" fill="white" fill-opacity="0.05"/>
<g clip-path="url(#clip0_208_1527)">
<path fill-rule="evenodd" clip-rule="evenodd" d="M15 8.33331C15.7125 8.33331 16.4433 8.35165 17.1516 8.38165L17.9883 8.42165L18.7891 8.46915L19.5391 8.51998L20.2241 8.57331C20.9675 8.63021 21.667 8.94744 22.1996 9.46918C22.7321 9.99092 23.0636 10.6838 23.1358 11.4258L23.1691 11.78L23.2316 12.5383C23.29 13.3241 23.3333 14.1808 23.3333 15C23.3333 15.8191 23.29 16.6758 23.2316 17.4616L23.1691 18.22C23.1583 18.3416 23.1475 18.4591 23.1358 18.5741C23.0636 19.3163 22.732 20.0093 22.1992 20.531C21.6665 21.0528 20.9668 21.3699 20.2233 21.4266L19.54 21.4791L18.79 21.5308L17.9883 21.5783L17.1516 21.6183C16.4348 21.6495 15.7174 21.6656 15 21.6666C14.2825 21.6656 13.5651 21.6495 12.8483 21.6183L12.0116 21.5783L11.2108 21.5308L10.4608 21.4791L9.77579 21.4266C9.03242 21.3697 8.33292 21.0525 7.80035 20.5308C7.26779 20.009 6.93627 19.3162 6.86413 18.5741L6.83079 18.22L6.76829 17.4616C6.70457 16.6426 6.67066 15.8215 6.66663 15C6.66663 14.1808 6.70996 13.3241 6.76829 12.5383L6.83079 11.78C6.84163 11.6583 6.85246 11.5408 6.86413 11.4258C6.93624 10.6839 7.26764 9.99116 7.80004 9.46943C8.33243 8.94771 9.03173 8.6304 9.77496 8.57331L10.4591 8.51998L11.2091 8.46915L12.0108 8.42165L12.8475 8.38165C13.5645 8.35051 14.2822 8.33439 15 8.33331ZM13.3333 12.9791V17.0208C13.3333 17.4058 13.75 17.6458 14.0833 17.4541L17.5833 15.4333C17.6595 15.3895 17.7227 15.3263 17.7667 15.2503C17.8107 15.1742 17.8338 15.0879 17.8338 15C17.8338 14.9121 17.8107 14.8258 17.7667 14.7497C17.7227 14.6736 17.6595 14.6105 17.5833 14.5666L14.0833 12.5466C14.0073 12.5027 13.921 12.4796 13.8332 12.4797C13.7454 12.4797 13.6592 12.5028 13.5832 12.5467C13.5071 12.5906 13.444 12.6538 13.4002 12.7299C13.3563 12.8059 13.3332 12.8922 13.3333 12.98V12.9791Z" fill="white"/>
</g>
<defs>
<clipPath id="clip0_208_1527">
<rect width="20" height="20" fill="white" transform="translate(5 5)"/>
</clipPath>
</defs>
</svg>
