<svg width="30" height="30" viewBox="0 0 30 30" fill="none" xmlns="http://www.w3.org/2000/svg">
<rect width="30" height="30" fill="white" fill-opacity="0.05"/>
<path d="M10.7833 9.16665C10.7831 9.60867 10.6073 10.0325 10.2945 10.3449C9.98182 10.6573 9.55781 10.8327 9.11578 10.8325C8.67376 10.8323 8.24992 10.6565 7.93752 10.3437C7.62511 10.031 7.44973 9.60701 7.44995 9.16498C7.45017 8.72295 7.62598 8.29912 7.9387 7.98671C8.25141 7.67431 8.67542 7.49892 9.11745 7.49915C9.55948 7.49937 9.98331 7.67517 10.2957 7.98789C10.6081 8.30061 10.7835 8.72462 10.7833 9.16665ZM10.8333 12.0666H7.49995V22.5H10.8333V12.0666ZM16.1 12.0666H12.7833V22.5H16.0666V17.025C16.0666 13.975 20.0416 13.6916 20.0416 17.025V22.5H23.3333V15.8916C23.3333 10.75 17.45 10.9416 16.0666 13.4666L16.1 12.0666Z" fill="white"/>
</svg>
