<svg width="156" height="140" viewBox="0 0 156 140" fill="none" xmlns="http://www.w3.org/2000/svg">
<path d="M155.369 58.1433C155.328 57.5841 155.203 56.9006 154.912 56.2171C154.621 55.5336 154.164 54.8294 153.624 54.3116C153.084 53.7731 152.523 53.421 152.024 53.1724C151.525 52.9239 151.11 52.7789 150.694 52.6754C149.946 52.4889 149.385 52.4475 148.887 52.4268C148.866 52.4268 148.845 52.4268 148.804 52.4268C148.284 49.9621 147.64 47.5181 146.851 45.1155C145.957 42.4437 144.918 39.8133 143.693 37.2657C143.298 36.4372 142.882 35.6295 142.446 34.8217C142.633 34.5732 142.82 34.3039 143.007 33.9932C143.194 33.6825 143.402 33.3097 143.609 32.8541C143.817 32.3777 144.046 31.7978 144.17 30.8243C144.233 30.3272 144.254 29.7059 144.087 28.9395C144.004 28.546 143.88 28.1318 143.693 27.7175C143.506 27.3033 143.256 26.8683 142.965 26.4955C142.674 26.1227 142.342 25.7706 141.989 25.5013C141.656 25.2321 141.324 25.025 141.012 24.8593C140.701 24.6936 140.41 24.5693 140.14 24.4865C139.87 24.4036 139.641 24.3208 139.413 24.2793C138.54 24.0929 137.958 24.0929 137.46 24.0929C136.961 24.1136 136.566 24.1551 136.213 24.1965C135.901 24.2379 135.61 24.3001 135.361 24.3415C135.008 23.9272 134.655 23.513 134.301 23.1195C130.52 18.8528 126.095 15.1454 121.254 12.1629C116.413 9.15966 111.177 6.90206 105.816 5.34867C100.477 3.73314 94.9709 2.86324 89.5066 2.55256C84.8526 2.28331 80.1986 2.42829 75.6277 2.90467C75.5445 2.78039 75.4407 2.65612 75.3576 2.53185C74.9005 1.97263 74.298 1.41341 73.6123 0.999172C72.9267 0.584934 72.1995 0.315679 71.5346 0.170696C70.8698 0.0257125 70.2672 -0.0157113 69.727 0.0050006C69.2076 0.0257125 68.7505 0.0878482 68.335 0.170696C67.5247 0.336391 66.9014 0.584934 66.3612 0.812765C65.821 1.06131 65.3431 1.30985 64.9276 1.5791C64.0757 2.0969 63.3693 2.63541 62.7045 3.17392C61.7072 4.0024 60.8346 4.83087 60.0243 5.68006C59.1724 5.88718 58.3206 6.11501 57.4895 6.34284C52.3576 7.77196 47.3504 9.49105 42.4678 11.5001C37.5853 13.4884 32.8274 15.746 28.2357 18.2729C33.2845 16.8645 38.3125 15.5182 43.382 14.3583C45.9168 13.7991 48.4308 13.2399 50.9656 12.7842C52.2953 12.5357 53.625 12.3079 54.9547 12.08C53.812 13.7577 52.7524 15.4768 51.7551 17.2166C50.363 19.702 49.0956 22.2289 47.9737 24.8179C43.4859 35.1531 41.0342 46.2547 40.7434 57.3562C40.6603 61.0222 40.8057 64.6882 41.2005 68.3335C40.1616 68.3957 39.1228 68.4578 38.0632 68.4992C25.3477 69.0585 12.4869 67.8779 0 64.8125C12.2376 68.7271 25.1192 70.8604 38.0839 71.1918C39.2474 71.2125 40.3902 71.2332 41.5537 71.2332C41.6783 72.1031 41.8238 72.9937 41.9692 73.8636C42.9249 79.2901 44.4209 84.5924 46.3947 89.6668C47.4335 92.3386 48.597 94.9276 49.8644 97.4752C38.354 98.2622 26.6982 97.7859 15.2086 95.9632C26.9268 98.6972 39.0397 100.023 51.1733 99.9606C51.9629 101.41 52.7731 102.86 53.6458 104.269C56.4714 108.887 59.6503 113.258 63.12 117.379C60.0243 112.988 57.2194 108.39 54.8301 103.627C54.2275 102.425 53.6458 101.183 53.0848 99.9606C65.634 99.7535 78.204 98.0758 90.5039 95.0933C96.6954 93.5813 102.825 91.7587 108.85 89.6047C111.675 88.5898 114.48 87.5128 117.264 86.3529C116.059 92.2144 114.252 98.0137 111.966 103.689C110.74 106.713 109.369 109.695 107.894 112.636C105.775 113.485 103.614 114.273 101.453 115.018C92.2491 118.125 82.6295 120.238 72.8643 121.48C63.0992 122.723 53.1887 123.096 43.2781 122.723C53.1264 123.986 63.0992 124.525 73.0929 124.173C83.0865 123.8 93.101 122.557 102.949 120.196C103.261 120.113 103.593 120.03 103.905 119.968C103.469 120.714 103.012 121.46 102.554 122.205C101.64 123.696 100.685 125.188 99.708 126.658C98.7315 128.129 97.7134 129.579 96.6954 131.028C94.6385 133.928 92.4569 136.766 90.213 139.624C93.2672 137.656 96.1552 135.44 98.9185 133.058C100.311 131.878 101.64 130.614 102.97 129.351C104.279 128.067 105.546 126.741 106.793 125.395C109.141 122.806 111.364 120.072 113.421 117.234C114.792 116.779 116.163 116.302 117.514 115.805C120.942 114.542 124.329 113.113 127.653 111.497C124.952 115.619 121.815 119.471 118.262 122.992C116.496 124.773 114.605 126.43 112.631 128.025C110.657 129.62 108.6 131.091 106.46 132.499C102.16 135.274 97.5472 137.636 92.7062 139.645C103.053 137.946 113.151 133.555 121.773 126.99C126.074 123.696 130.001 119.885 133.45 115.64C136.628 111.725 139.413 107.479 141.74 102.964C142.716 102.197 143.693 101.41 144.648 100.561C145.666 99.6499 146.684 98.6765 147.661 97.5995C148.16 97.061 148.637 96.481 149.115 95.8596C149.593 95.2383 150.05 94.5548 150.507 93.7263C150.736 93.3121 150.944 92.8771 151.151 92.3593C151.359 91.8415 151.546 91.2616 151.692 90.516C151.754 90.1432 151.816 89.7289 151.816 89.2526C151.816 88.7762 151.796 88.217 151.65 87.6163C151.525 86.995 151.276 86.3115 150.881 85.6487C150.487 84.9859 149.946 84.3645 149.365 83.9089C149.136 83.7225 148.908 83.5568 148.679 83.4118C149.614 79.0002 150.154 74.485 150.3 69.9491C150.341 68.9756 150.341 68.0022 150.341 67.0287C150.694 66.6973 151.068 66.3452 151.422 65.9724C152.086 65.3096 152.73 64.5847 153.437 63.6734C153.79 63.197 154.143 62.6999 154.496 61.975C154.683 61.6022 154.87 61.1879 155.037 60.608L155.099 60.3802L155.161 60.1316C155.203 59.9659 155.244 59.7795 155.265 59.5931C155.369 59.1582 155.411 58.7232 155.369 58.1433ZM134.198 42.3608C137.231 48.8644 139.059 55.9685 139.766 63.2177C139.142 63.7562 138.478 64.2947 137.833 64.8332C135.506 66.6973 133.076 68.4578 130.541 70.1562C130.291 70.3219 130.021 70.5083 129.751 70.674C129.793 68.2714 129.731 65.8481 129.523 63.4455C129.086 58.0812 127.964 52.7375 126.198 47.6216C127.881 46.6068 129.544 45.5712 131.185 44.4527C132.203 43.7899 133.2 43.0857 134.198 42.3608ZM102.949 14.3376C105.235 15.1454 107.437 16.0774 109.577 17.1337C110.657 17.6722 111.696 18.2315 112.735 18.8321C113.774 19.4328 114.771 20.0541 115.748 20.7169C119.675 23.3473 123.227 26.4955 126.282 30.0787C127.32 31.3007 128.318 32.5641 129.232 33.8689C129.19 33.9104 129.149 33.9311 129.107 33.9725C127.985 34.9667 126.801 35.9194 125.596 36.8515C124.578 37.6385 123.539 38.4256 122.479 39.1919C122.376 38.9848 122.251 38.7777 122.147 38.5705C121.69 37.7214 121.191 36.8722 120.693 36.0437C119.695 34.3867 118.594 32.7919 117.431 31.2385C115.104 28.1525 112.507 25.2942 109.681 22.726C104.632 18.1279 98.9185 14.4619 92.8932 11.6658C96.3629 12.3079 99.7288 13.1778 102.949 14.3376ZM46.1453 57.6876C47.2673 47.3524 50.4461 37.3278 55.2871 28.2975C56.4922 26.0399 57.8219 23.8651 59.2347 21.7732C60.6476 19.6813 62.1851 17.693 63.8056 15.8496C64.6159 14.9383 65.447 14.0684 66.3196 13.2606C67.1715 12.4529 68.0441 11.7279 68.8752 11.1687C69.2907 10.8787 69.6855 10.6509 69.9971 10.5059C70.0179 10.5059 70.0595 10.4645 70.0802 10.4645C70.1841 10.4024 70.2672 10.3817 70.288 10.3817C70.3296 10.3609 70.3919 10.3402 70.4334 10.3402C71.5138 10.2781 72.6773 10.2367 73.7577 10.216C75.7731 10.1745 77.7884 10.1745 79.783 10.2367C82.6918 11.8108 85.5174 13.4884 88.2184 15.3111C91.1064 17.2373 93.8697 19.3085 96.4668 21.5454C99.0639 23.7615 101.474 26.1434 103.676 28.6496C107.977 33.5376 111.447 39.0055 113.961 44.8463C112.694 45.6333 111.405 46.3789 110.096 47.1246C99.2094 53.3381 87.5536 58.3504 75.4614 62.0164C65.7794 64.9368 55.8066 66.9873 45.6882 67.9607C45.6259 64.5226 45.7714 61.0844 46.1453 57.6876ZM118.656 77.3225C114.647 79.4973 110.554 81.5063 106.377 83.3497C100.747 85.8351 94.9709 88.0306 89.0703 89.9153C77.2898 93.6849 65.073 96.2118 52.6485 97.2681C52.4199 97.2888 52.2122 97.3095 51.9836 97.3302C50.8409 94.5341 49.8228 91.6966 48.9918 88.8176C47.4958 83.7432 46.4985 78.5445 46.0207 73.3251C45.9583 72.6209 45.896 71.896 45.8545 71.1918C56.2637 70.9225 66.6728 69.5348 76.8743 67.2151C83.232 65.7653 89.5274 63.9426 95.7189 61.7886C101.91 59.6345 107.977 57.1284 113.899 54.2702C114.854 53.8145 115.81 53.3381 116.766 52.841C117.784 56.5899 118.449 60.4423 118.76 64.3362C119.114 68.6235 119.051 72.973 118.656 77.3225ZM135.257 96.481C134.551 97.1231 133.803 97.7444 133.055 98.3658C131.247 99.8363 129.357 101.224 127.383 102.529C124.931 104.165 122.396 105.677 119.778 107.086C123.29 100.582 126.032 93.5813 127.736 86.2493C128.131 84.5303 128.484 82.7905 128.775 81.0299C130.915 79.9322 133.055 78.7931 135.153 77.5918C136.753 76.6804 138.353 75.7277 139.911 74.7335C139.454 82.107 137.875 89.4597 135.257 96.481Z" fill="#9EA0A3"/>
</svg>
