<svg width="242" height="168" viewBox="0 0 242 168" fill="none" xmlns="http://www.w3.org/2000/svg">
<path d="M175.491 150.85L172.977 153.335C171.377 151.658 169.528 150.808 167.409 150.808C165.559 150.808 164.001 151.43 162.755 152.652C161.508 153.874 160.885 155.365 160.885 157.105C160.885 158.907 161.529 160.439 162.838 161.703C164.126 162.966 165.726 163.588 167.637 163.588C168.884 163.588 169.923 163.318 170.774 162.801C171.626 162.283 172.312 161.475 172.831 160.357H167.388V157.001H176.841L176.862 157.788C176.862 159.424 176.426 160.978 175.574 162.448C174.722 163.919 173.621 165.037 172.27 165.804C170.92 166.57 169.32 166.964 167.512 166.964C165.559 166.964 163.814 166.549 162.297 165.7C160.76 164.851 159.555 163.65 158.661 162.096C157.768 160.543 157.332 158.845 157.332 157.043C157.332 154.557 158.163 152.403 159.804 150.56C161.757 148.385 164.292 147.287 167.429 147.287C169.071 147.287 170.587 147.598 172.021 148.199C173.164 148.737 174.348 149.607 175.491 150.85Z" fill="#9EA0A3"/>
<path d="M179.231 147.784H183.012C185.09 147.784 186.565 147.971 187.458 148.344C188.331 148.716 189.058 149.317 189.577 150.187C190.118 151.036 190.388 152.051 190.388 153.232C190.388 154.454 190.097 155.489 189.494 156.318C188.913 157.146 188.019 157.767 186.814 158.202L191.26 166.529H187.354L183.116 158.596H182.783V166.529H179.21V147.784H179.231ZM182.825 155.116H183.947C185.09 155.116 185.879 154.971 186.295 154.661C186.731 154.371 186.939 153.874 186.939 153.169C186.939 152.755 186.835 152.403 186.627 152.092C186.419 151.782 186.128 151.575 185.775 151.45C185.422 151.326 184.757 151.243 183.822 151.243H182.846V155.116H182.825Z" fill="#9EA0A3"/>
<path d="M201.94 147.329C204.599 147.329 206.885 148.281 208.796 150.208C210.707 152.134 211.663 154.474 211.663 157.229C211.663 159.963 210.728 162.283 208.838 164.168C206.947 166.052 204.661 167.005 201.96 167.005C199.135 167.005 196.787 166.032 194.917 164.085C193.047 162.138 192.112 159.839 192.112 157.146C192.112 155.344 192.549 153.708 193.421 152.196C194.294 150.684 195.478 149.503 197.016 148.613C198.532 147.764 200.174 147.329 201.94 147.329ZM201.898 150.808C200.153 150.808 198.698 151.409 197.514 152.61C196.33 153.812 195.727 155.344 195.727 157.208C195.727 159.28 196.475 160.916 197.971 162.117C199.135 163.07 200.464 163.525 201.96 163.525C203.664 163.525 205.098 162.904 206.303 161.682C207.508 160.46 208.09 158.948 208.09 157.167C208.09 155.386 207.487 153.874 206.282 152.631C205.077 151.43 203.623 150.808 201.898 150.808Z" fill="#9EA0A3"/>
<path d="M213.782 147.784H217.377V159.901C217.377 160.936 217.46 161.682 217.647 162.117C217.834 162.552 218.125 162.904 218.561 163.153C218.977 163.401 219.496 163.546 220.099 163.546C220.722 163.546 221.262 163.401 221.719 163.111C222.176 162.821 222.488 162.448 222.675 162.013C222.841 161.558 222.945 160.709 222.945 159.466V147.784H226.539V158.969C226.539 160.854 226.436 162.158 226.228 162.883C226.02 163.608 225.604 164.312 225.002 164.996C224.399 165.679 223.714 166.177 222.924 166.508C222.135 166.839 221.221 167.005 220.182 167.005C218.81 167.005 217.626 166.694 216.629 166.073C215.611 165.452 214.904 164.665 214.468 163.733C214.032 162.8 213.824 161.206 213.824 158.969V147.784H213.782Z" fill="#9EA0A3"/>
<path d="M229.531 147.784H233.333C235.39 147.784 236.865 147.971 237.78 148.344C238.694 148.716 239.4 149.338 239.92 150.187C240.439 151.036 240.709 152.051 240.709 153.232C240.709 154.536 240.356 155.634 239.67 156.504C238.985 157.374 238.05 157.975 236.886 158.306C236.201 158.492 234.933 158.596 233.105 158.596V166.529H229.531V147.784ZM233.105 155.116H234.248C235.141 155.116 235.764 155.054 236.117 154.93C236.471 154.806 236.741 154.599 236.949 154.288C237.156 153.998 237.239 153.646 237.239 153.211C237.239 152.486 236.949 151.968 236.388 151.616C235.972 151.368 235.224 151.243 234.102 151.243H233.084V155.116H233.105Z" fill="#9EA0A3"/>
<path d="M42.7684 34.6146H0.155151V139.79H42.7684V34.6146Z" fill="#00355F"/>
<path d="M42.7684 0.39856H0.155151V27.5933H42.7684V0.39856Z" fill="#00355F"/>
<path d="M241.021 139.769V104.579C223.735 104.579 217.979 99.1114 217.979 84.8409V52.8825H236.741V22.7674H217.979V0.41925H177.901V22.7674H169.424V52.8825H177.88L177.901 111.87C177.901 130.863 188.975 139.769 205.139 139.769H241.021Z" fill="#00355F"/>
<path d="M90.2019 57.8534C152.948 46.5861 131.839 131.153 90.2019 102.467V57.8534ZM90.2019 0.39856H50.1234V139.769H90.2019V127.135C171.128 186.847 223.444 14.2341 90.2019 33.5376V0.39856Z" fill="#00355F"/>
</svg>
